# xmcd
#
# Track frame offsets: 
#        150
#        9320
#        22107
#        33380
#        42849
#        52139
#        66713
#        79614
#        93034
#        105557
#        118263
#        132163
#        144472
#        154210
#        167645
#        180721
#        191202
#        204522
#
# Disc length: 2839 seconds
#
# Revision: 0
# Processed by: cddbd v1.5.1PL0 Copyright (c) Steve Scherf et al.
# Submitted via: ExactAudioCopy v0.95a5
#
DISCID=fc0b1512
DTITLE=Bobby Marchan - The Very Best Of Bobby Marchan
DYEAR=1999
DGENRE=R&B/Soul
TTITLE0=There's Something On Your Mind (Part 1)
TTITLE1=There's Something On Your Mind (Part 2)
TTITLE2=Yes, It's Written All Over Your Face
TTITLE3=You're Still My Baby (Part 1)
TTITLE4=You're Still My Baby (Part 2)
TTITLE5=All In My Mind
TTITLE6=I Miss You So
TTITLE7=Booty Green
TTITLE8=It Hurts Me To My Heart
TTITLE9=What You Don't Know Won't Hurt You
TTITLE10=I Need Someone (I Need You)
TTITLE11=Look At My Heart
TTITLE12=Snoopin' And Accusin'
TTITLE13=The Things I Used To Do (Part 1)
TTITLE14=The Things I Used To Do (Part 2)
TTITLE15=This Is The Life
TTITLE16=Yes, It's Written All Over Your Face (Part 1)
TTITLE17=Yes, It's Written All Over Your Face (Part 2)
EXTD=
EXTT0=
EXTT1=
EXTT2=
EXTT3=
EXTT4=
EXTT5=
EXTT6=
EXTT7=
EXTT8=
EXTT9=
EXTT10=
EXTT11=
EXTT12=
EXTT13=
EXTT14=
EXTT15=
EXTT16=
EXTT17=
PLAYORDER=
